<?xml version="1.0" encoding="UTF-8"?>
<svg id="Layer_2" data-name="Layer 2" xmlns="http://www.w3.org/2000/svg" viewBox="0 0 268.15 325.56">
  <defs>
    <style>
      .cls-1, .cls-2 {
        fill: #fec700;
      }

      .cls-3 {
        fill: #2b191d;
      }

      .cls-3, .cls-4, .cls-5, .cls-6, .cls-2, .cls-7, .cls-8, .cls-9 {
        fill-rule: evenodd;
      }

      .cls-4 {
        fill: #231916;
      }

      .cls-5 {
        fill: #c6c2c4;
      }

      .cls-6 {
        fill: #ce9ca7;
      }

      .cls-7 {
        fill: #919191;
      }

      .cls-8 {
        fill: #f4f4f4;
      }

      .cls-9 {
        fill: #fbe9ed;
      }
    </style>
  </defs>
  <g id="Layer_1-2" data-name="Layer 1">
    <g id="light">
      <path class="cls-1" d="M69.98,215.87c.71,.47,.9,1.42,.43,2.12-.47,.71-1.42,.9-2.12,.43-3.33-2.21-6.56-4.58-9.66-7.12-3.13-2.56-6.1-5.24-8.91-8.05-10.97-10.97-19.81-24.09-25.85-38.67-5.81-14.03-9.02-29.41-9.02-45.53s3.21-31.5,9.02-45.53c6.04-14.58,14.88-27.69,25.85-38.67,10.97-10.97,24.09-19.81,38.67-25.85C102.42,3.21,117.79,0,133.91,0s31.5,3.21,45.53,9.02c14.58,6.04,27.69,14.88,38.67,25.85,10.97,10.97,19.81,24.09,25.85,38.67,5.81,14.03,9.02,29.41,9.02,45.53s-3.21,31.5-9.02,45.53c-6.04,14.58-14.88,27.69-25.85,38.67-2.81,2.81-5.78,5.49-8.91,8.05-3.1,2.53-6.33,4.91-9.66,7.12-.71,.47-1.66,.27-2.12-.43-.47-.71-.27-1.66,.43-2.12,3.27-2.16,6.41-4.48,9.42-6.94,3-2.45,5.89-5.07,8.67-7.85,10.7-10.7,19.32-23.47,25.19-37.66,5.66-13.66,8.78-28.64,8.78-44.36s-3.12-30.7-8.78-44.36c-5.88-14.18-14.49-26.96-25.19-37.66-10.7-10.7-23.47-19.32-37.66-25.19-13.66-5.66-28.64-8.78-44.36-8.78s-30.7,3.12-44.36,8.78c-14.18,5.88-26.96,14.49-37.66,25.19-10.7,10.7-19.32,23.47-25.19,37.66-5.66,13.66-8.78,28.64-8.78,44.36s3.12,30.7,8.78,44.36c5.88,14.18,14.49,26.96,25.19,37.66,2.78,2.78,5.67,5.4,8.67,7.85,3.01,2.46,6.15,4.78,9.42,6.94"/>
      <path class="cls-1" d="M133.91,7.34c30.85,0,58.79,12.51,79,32.73,20.22,20.22,32.73,48.15,32.73,79s-12.51,58.79-32.73,79c-20.22,20.22-48.15,32.73-79,32.73s-58.79-12.51-79-32.73c-20.22-20.22-32.73-48.15-32.73-79s12.51-58.79,32.73-79C75.13,19.85,103.06,7.34,133.91,7.34"/>
      <path class="cls-3" d="M133.92,34.72c18.14,0,32.84,10.88,32.84,24.31s-14.7,24.31-32.84,24.31-32.84-10.88-32.84-24.31,14.7-24.31,32.84-24.31"/>
      <path class="cls-9" d="M162.36,57.73c.04,.43,.06,.86,.06,1.29,0,5.98-3.76,11.35-9.71,15.01-.61,.38-1.41,.2-1.81-.39-.41-.61-.25-1.43,.35-1.85,5.15-3.57,8.36-8.5,8.45-13.96,.01-.71,.58-1.29,1.29-1.32,.71-.03,1.32,.51,1.38,1.22"/>
      <path class="cls-9" d="M133.92,39.19c4.94,0,9.58,.88,13.62,2.43,.2,.08,.31,.29,.24,.5-.06,.2-.27,.32-.48,.27-2.89-.7-5.99-1.07-9.22-1.07-15.67,0-28.36,8.88-28.36,19.83,0,4.52,2.16,8.68,5.8,12.01,.16,.14,.18,.38,.05,.54-.13,.17-.36,.21-.54,.1-5.81-3.63-9.47-8.91-9.47-14.79,0-10.95,12.7-19.83,28.36-19.83"/>
      <path class="cls-3" d="M179.85,179.88c-.53,2.29-.76,5-1,7.92-.57,6.75-1.25,14.77-6.4,20.49-1.05-.82-1.78-1.82-2.27-2.82-.86-1.72-1.05-3.42-1.08-4.24,0-.09,0-.16,0-.22,0-.06,.03-.13,.06-.21,.38-1.01,1.39-3.64,3.01-7.29h0c.95-2.15,2.13-4.67,3.54-7.44,1.31-2.59,2.72-4.64,4.16-6.19m-.06,21.85l8.77-2.93c-.83,1.04-1.73,1.99-2.67,2.85-2.83,2.57-6.01,4.34-8.58,5.5,1.06-1.73,1.86-3.55,2.48-5.41Zm13.34-15.5l-11.22,3.75c.06-.65,.11-1.28,.16-1.91,.55-6.54,1-11.78,5.36-12.05,.5,.04,.97,.15,1.42,.33,1.05,.41,1.97,1.19,2.68,2.29,1.15,1.78,1.77,4.35,1.6,7.58Zm-11.53,6.74l11.16-3.73c-.16,.84-.36,1.71-.61,2.62-.33,1.16-.75,2.25-1.25,3.27l-10.22,3.42c.42-1.86,.71-3.74,.93-5.58Zm-1.23-17.83c-2.66,1.91-5.29,5.01-7.56,9.49-1.38,2.72-2.59,5.32-3.6,7.59h0c-.99,2.24-1.78,4.15-2.33,5.54l-4.81,.72c-.73,.11-1.43,.02-2.04-.24-.61-.26-1.15-.7-1.57-1.3l-1.78-2.53c8.75-17.18,18.13-21.1,21.05-21.94l2.65,2.67Zm-6.62-74.98c.29-.18,.6-.31,.9-.39,.43-.12,.88-.15,1.36-.1,2.43,.25,4.53,.88,6.25,1.63,2.56,1.12,4.25,2.47,4.96,3.21,.13,.14,.24,.27,.33,.39,.09,.12,.18,.27,.27,.44,3,5.67,2.41,11.53,2.12,14.48v.06c-.05,.46-.16,.87-.35,1.25h0c-.18,.38-.43,.72-.77,1.05-.99,.97-2,1.88-3.01,2.73-1.12-14.67-8.48-22.02-12.07-24.76Zm25.32-4.21c-.14-.24-.28-.47-.42-.69-1.17-1.87-2.57-3.42-4.12-4.32,.56-1.12,1.89-1.61,3.27-1.76,.34-.04,.6-.28,.67-.62,.06-.34-.09-.66-.39-.82-.32-.17-.66-.31-.99-.42-.94-.3-1.91-.34-2.79-.1-.95,.26-1.78,.83-2.37,1.73-.23,.34-.42,.74-.56,1.17-.53,.04-1.07,.16-1.61,.37-2.51,1-4.4,2.64-5.75,4.22,.68-2.07,1.64-4.61,2.89-7.16h0s.02-.04,.02-.04c2.13-1.91,4.6-3.02,6.95-3.39,1.77-.28,3.46-.14,4.86,.38,1.3,.49,2.34,1.31,2.95,2.44,.48,.88,.7,1.98,.59,3.3-.13,1.51-.59,2.83-1.34,3.91-.49,.7-1.11,1.3-1.85,1.78Zm2.5,5.9c-.22-.78-.49-1.58-.81-2.37-.08-.21-.17-.42-.26-.63,1.23-.73,2.26-1.69,3.06-2.82,.76-1.07,1.3-2.3,1.63-3.65,.35,.39,.63,.79,.84,1.2,.53,1.03,.61,2.11,.35,3.16-.27,1.11-.92,2.18-1.84,3.11-.82,.83-1.84,1.53-2.98,2.01Zm.71,4.78c.02-.49,0-1.02-.06-1.57,1.77-.65,3.37-1.69,4.62-2.96,.37-.37,.71-.77,1.02-1.18,.34,.55,.54,1.09,.62,1.6,.1,.68-.03,1.32-.34,1.88-.34,.6-.89,1.12-1.63,1.51-1.08,.58-2.52,.87-4.23,.73Zm-9.19,4.5c-.37-2.31-1.09-4.81-2.41-7.3-.15-.29-.32-.55-.51-.82-.19-.26-.39-.5-.61-.73-.75-.79-2.36-2.11-4.67-3.31,.92-1.6,2.83-4.21,6.03-5.48,1.64-.65,3.48,1.07,5,3.48,.71,1.12,1.33,2.4,1.84,3.68,.5,1.28,.88,2.57,1.1,3.72,.32,1.66,.46,2.88,.28,2.95-.06,.02-.11,.04-.17,.05-.8,.18-1.71-.39-2.59-1.4-1.13-1.29-2.13-3.23-2.88-5.39,0,0,0-.02,0-.02-.12-.35-.46-.56-.83-.51-.37,.05-.64,.34-.66,.71-.21,3.34,1.13,7.14,3.55,8.9-.2,.23-.45,.47-.78,.69-.43,.29-.98,.56-1.68,.79Zm-105.11,68.74c.53,2.29,.76,5,1,7.92,.57,6.75,1.25,14.77,6.4,20.49,1.05-.82,1.78-1.82,2.27-2.82,.86-1.72,1.05-3.42,1.08-4.24,0-.09,0-.16,0-.22,0-.06-.03-.13-.06-.21-.38-1.01-1.39-3.64-3.01-7.29h0c-.95-2.15-2.13-4.67-3.54-7.44-1.31-2.59-2.72-4.64-4.16-6.19Zm2.14-7.42l-2.65,2.67c2.66,1.91,5.29,5.01,7.56,9.49,1.38,2.72,2.59,5.32,3.6,7.59h0c.99,2.24,1.78,4.15,2.33,5.54l4.81,.72c.73,.11,1.43,.02,2.04-.24,.61-.26,1.15-.7,1.57-1.3l1.78-2.53c-8.75-17.18-18.13-21.1-21.05-21.94Zm-2.08,29.26l-8.77-2.93c.83,1.04,1.73,1.99,2.67,2.85,2.83,2.57,6.01,4.34,8.58,5.5-1.06-1.73-1.86-3.55-2.48-5.41Zm-13.34-15.5l11.22,3.75c-.06-.65-.11-1.28-.16-1.91-.55-6.54-1-11.78-5.36-12.05-.5,.04-.97,.15-1.42,.33-1.05,.41-1.97,1.19-2.68,2.29-1.15,1.78-1.77,4.35-1.6,7.58Zm11.53,6.74l-11.16-3.73c.16,.84,.36,1.71,.61,2.62,.33,1.16,.75,2.25,1.25,3.27l10.22,3.42c-.42-1.86-.71-3.74-.93-5.58Zm7.84-92.81c-.29-.18-.6-.31-.9-.39-.43-.12-.88-.15-1.36-.1-2.43,.25-4.53,.88-6.25,1.63-2.56,1.12-4.25,2.47-4.96,3.21-.13,.14-.24,.27-.33,.39-.09,.12-.18,.27-.27,.44-3,5.67-2.41,11.53-2.12,14.48v.06c.05,.46,.16,.87,.35,1.25h0c.18,.38,.43,.72,.77,1.05,.99,.97,2,1.88,3.01,2.73,1.12-14.67,8.48-22.01,12.07-24.76Zm-20.78-9.22c-.56-1.12-1.89-1.61-3.27-1.76-.34-.04-.6-.28-.67-.62-.06-.34,.09-.66,.39-.82,.32-.17,.66-.31,.99-.42,.94-.3,1.91-.34,2.79-.1,.95,.26,1.78,.83,2.37,1.73,.23,.34,.42,.74,.56,1.17,.53,.04,1.07,.16,1.61,.37,2.51,1,4.4,2.64,5.75,4.22-.68-2.07-1.64-4.61-2.89-7.16h0s-.02-.04-.02-.04c-2.13-1.91-4.6-3.02-6.95-3.39-1.77-.28-3.46-.14-4.86,.38-1.3,.49-2.34,1.31-2.95,2.44-.48,.88-.7,1.98-.59,3.3,.13,1.51,.59,2.83,1.34,3.91,.49,.7,1.11,1.3,1.85,1.78,.14-.24,.28-.47,.42-.69,1.17-1.87,2.57-3.42,4.12-4.32Zm-7.04,10.92c.22-.78,.49-1.58,.81-2.37,.08-.21,.17-.42,.26-.63-1.23-.73-2.26-1.69-3.06-2.82-.76-1.07-1.3-2.3-1.63-3.65-.35,.39-.63,.79-.84,1.2-.53,1.03-.61,2.11-.35,3.16,.27,1.11,.92,2.18,1.84,3.11,.82,.83,1.84,1.53,2.98,2.01Zm-.71,4.78c-.02-.49,0-1.02,.06-1.57-1.77-.65-3.37-1.69-4.62-2.96-.37-.37-.71-.77-1.02-1.18-.34,.55-.54,1.09-.62,1.6-.1,.68,.03,1.32,.34,1.88,.34,.6,.89,1.12,1.63,1.51,1.08,.58,2.53,.87,4.23,.73Zm9.19,4.5c.37-2.31,1.09-4.81,2.41-7.3,.15-.29,.32-.55,.51-.82,.19-.26,.39-.5,.61-.73,.75-.79,2.36-2.11,4.67-3.31-.92-1.6-2.83-4.21-6.03-5.48-1.64-.65-3.48,1.07-5,3.48-.71,1.12-1.33,2.4-1.84,3.68-.5,1.28-.88,2.57-1.1,3.72-.32,1.66-.46,2.88-.28,2.95,.06,.02,.11,.04,.17,.05,.8,.18,1.71-.39,2.59-1.4,1.13-1.29,2.13-3.23,2.88-5.39,0,0,0-.02,0-.02,.12-.35,.46-.56,.83-.51,.37,.05,.64,.34,.66,.71,.21,3.34-1.13,7.14-3.55,8.9,.2,.23,.45,.47,.78,.69,.43,.29,.98,.56,1.68,.79Zm80.06,51.15l.16-15.78c0-.35-.22-.65-.55-.74-5.01-1.44-12.73-2.15-20.48-2.15s-15.47,.72-20.48,2.15c-.34,.1-.56,.39-.55,.74l.16,15.78c0,.29,.16,.54,.42,.68,2.71,1.37,10.28,4.68,20.44,4.83,0,0,.01,0,.02,0,10.16-.15,17.73-3.46,20.44-4.83,.26-.13,.42-.38,.42-.68Zm2.91-17.32l-.19,18.95c0,.28-.14,.51-.38,.65l-.29,.17s-9.35,5.59-22.9,5.79h-.04c-13.55-.2-22.87-5.77-22.9-5.79l-.29-.17c-.24-.14-.38-.38-.38-.65l-.2-19.38c0-.33,.19-.62,.51-.73l.4-.15c5.19-1.87,14.06-2.8,22.88-2.8s17.68,.93,22.88,2.8l.4,.15c.31,.11,.51,.4,.51,.73v.43Zm-32.01-15.53c-.63-.63-1.5-1.02-2.46-1.02s-1.83,.39-2.46,1.01h0c-.63,.63-1.01,1.5-1.01,2.46s.39,1.83,1.02,2.46h0c.63,.63,1.49,1.02,2.46,1.02s1.83-.39,2.46-1.02c.63-.63,1.02-1.5,1.02-2.46s-.39-1.83-1.01-2.46h0Zm-2.46-3.77c1.72,0,3.27,.7,4.4,1.82h0c1.13,1.13,1.83,2.69,1.83,4.4s-.7,3.27-1.82,4.4c-1.13,1.13-2.68,1.82-4.4,1.82s-3.27-.7-4.4-1.83h0c-1.13-1.12-1.82-2.68-1.82-4.4s.7-3.27,1.82-4.4h0c1.13-1.13,2.68-1.83,4.4-1.83Zm18.91,3.77c.63-.63,1.5-1.02,2.46-1.02s1.83,.39,2.46,1.01h0c.63,.63,1.01,1.5,1.01,2.46s-.39,1.83-1.02,2.46h0c-.63,.63-1.49,1.02-2.46,1.02s-1.83-.39-2.46-1.02c-.63-.63-1.02-1.5-1.02-2.46s.39-1.83,1.01-2.46h0Zm2.46-3.77c-1.72,0-3.27,.7-4.4,1.82h0c-1.13,1.13-1.83,2.69-1.83,4.4s.7,3.27,1.82,4.4c1.13,1.13,2.68,1.82,4.4,1.82s3.27-.7,4.4-1.83h0c1.13-1.12,1.82-2.68,1.82-4.4s-.7-3.27-1.82-4.4h0c-1.13-1.13-2.68-1.83-4.4-1.83Zm-43.31-16.57c-.53-1.33-.86-2.79-.93-4.4l-3.95-2.87c-2.84,1.95-11.21,9.01-11.78,25.17,3.05,2.29,6.05,4.09,8.67,5.47,.14-8.11,.73-18.7,8-23.37Zm66.08-4.33c-.08,1.56-.39,2.99-.91,4.29,7.33,4.65,7.92,15.28,8.06,23.41,2.62-1.38,5.62-3.19,8.67-5.47-.57-16.15-8.94-23.22-11.78-25.17l-4.04,2.94Zm-63.76-.03c1.13,14.79,30.17,14.73,30.26,14.73,.09,0,29.04,.07,30.26-14.65-16.86,11.92-43.69,11.9-60.52-.07Zm-5.07,59.24l-6.29,6.34c4.21,1.66,12.78,6.69,20.69,21.56l6.89-9.78c-2.81,0-4.78-1.64-5.68-2.58-.11-.11-.14-.27-.08-.42,.06-.14,.2-.23,.35-.23h39c.16,0,.29,.09,.35,.23,.06,.14,.03,.3-.08,.42-.9,.94-2.87,2.58-5.68,2.58h-.02l6.89,9.78c7.91-14.87,16.48-19.9,20.69-21.56l-6.3-6.34c-.83,1.78-1.99,3.32-3.58,4.43-.29,.2-.67,.19-.94-.04-.27-.23-.35-.6-.19-.92,2.66-5.42,7.84-20.39-4.6-38.09-.21-.3-.18-.7,.07-.97,.25-.27,.65-.32,.96-.12,2.64,1.63,4.71,4.36,6.27,7.47,1.02-.38,2.6-1,4.53-1.91-.1-7.57-.32-18.13-6.62-22.33-7.45,11.26-31.23,11.19-31.31,11.19-.08,0-23.81,.07-31.3-11.15-6.24,4.23-6.46,14.74-6.56,22.29,1.93,.91,3.51,1.53,4.53,1.91,1.56-3.11,3.63-5.84,6.27-7.47,.31-.19,.71-.14,.96,.12,.25,.27,.28,.67,.07,.97-12.44,17.7-7.26,32.67-4.6,38.09,.16,.32,.08,.69-.19,.92-.27,.23-.65,.25-.94,.04-1.59-1.12-2.75-2.66-3.58-4.43Zm80.71-82.79c.26-.09,.52-.2,.76-.32,2.01-1.01,3.27-3.05,3.97-5.58,.76-2.74,.86-6.03,.54-9.27-.43-4.3-1.59-8.46-2.94-11.16-.7-1.39-1.68-2.27-2.72-2.82-.99-.53-2.06-.77-3.01-.87,2.7,6.26,4.18,13.06,4.31,19.78,.07,3.46-.22,6.89-.89,10.23Zm-89.81,3.51c-1.12-.17-2.14-.49-3.05-.95-2.93-1.47-4.7-4.23-5.63-7.6-.87-3.15-.99-6.84-.64-10.44,.46-4.68,1.75-9.27,3.27-12.28,1.04-2.08,2.52-3.4,4.1-4.24,2.16-1.14,4.48-1.33,6.06-1.29,17.06-32.95,63.67-32.95,80.73,0,1.58-.05,3.9,.14,6.06,1.29,1.58,.83,3.06,2.16,4.1,4.24,1.51,3.01,2.8,7.6,3.27,12.28,.36,3.6,.23,7.29-.64,10.44-.93,3.36-2.7,6.12-5.63,7.6-.91,.46-1.93,.78-3.05,.95-.56,1.94-1.25,3.82-2.08,5.65-1.18,2.59-2.65,4.96-4.37,7.12,.59-.38,1.22-.65,1.87-.83,.8-.21,1.63-.28,2.51-.19,1.27,.13,2.47,.35,3.58,.63,.62-2.28,1.94-6.59,4.08-10.95h0c.1-.21,.21-.38,.33-.55,.12-.16,.26-.31,.44-.47,2.62-2.35,5.68-3.71,8.61-4.17,2.31-.36,4.56-.17,6.48,.55,2.02,.76,3.67,2.08,4.67,3.93,.47,.88,.8,1.87,.93,2.96,1.64,1.11,2.76,2.37,3.44,3.71,.91,1.77,1.05,3.62,.62,5.38-.02,.07-.04,.15-.06,.22,1.3,1.41,2.01,2.9,2.22,4.35,.2,1.4-.07,2.73-.73,3.91-.64,1.13-1.64,2.09-2.92,2.77-1.79,.95-4.15,1.39-6.84,1.01-.27,.27-.6,.48-.98,.61-.18,.06-.35,.11-.53,.15-.31,.07-.61,.11-.91,.13-.42,.81-1.1,1.65-2.18,2.38-.8,.54-1.84,1.02-3.17,1.38,.09,2.34-.11,4.33-.25,5.73v.06c-.09,.84-.3,1.62-.65,2.33h0c-.35,.72-.82,1.37-1.42,1.96-8.66,8.46-18.66,12.76-22.51,14.2,1.35,3.52,2.12,7.24,2.41,10.27,.32,3.42,.4,7.75-.53,11.61l12.84,12.93c.41-.16,.81-.3,1.21-.4,1.96-.52,3.84-.42,5.51,.24,1.67,.66,3.12,1.86,4.21,3.54,2.22,3.43,2.96,8.93,1.02,15.84-1.34,4.77-4.08,8.47-7.19,11.3-4.99,4.53-10.94,6.8-13.49,7.62-.67,.21-1.34,.27-2,.16-.66-.11-1.29-.37-1.85-.78-1.63-1.19-2.72-2.66-3.44-4.12-1.12-2.24-1.36-4.47-1.41-5.54,0-.07,0-.13,0-.2l-3.33,.5c-1.32,.2-2.61,.03-3.77-.47-1.16-.5-2.18-1.31-2.95-2.41l-11.76-16.69h-20.28l-11.76,16.69c-.77,1.1-1.79,1.91-2.95,2.41-1.16,.5-2.45,.66-3.77,.47l-3.33-.5c0,.07,0,.13,0,.2-.05,1.08-.3,3.3-1.41,5.54-.72,1.45-1.81,2.92-3.44,4.12-.56,.41-1.19,.68-1.85,.78-.66,.11-1.33,.05-2-.16-2.55-.82-8.51-3.09-13.49-7.62-3.11-2.83-5.85-6.53-7.19-11.3-1.94-6.91-1.2-12.41,1.02-15.84,1.09-1.68,2.53-2.89,4.21-3.54,1.68-.66,3.56-.76,5.51-.24,.4,.11,.8,.24,1.21,.4l12.84-12.93c-.93-3.87-.86-8.2-.53-11.61,.29-3.03,1.07-6.75,2.41-10.27-3.84-1.44-13.85-5.74-22.51-14.2-.6-.59-1.07-1.24-1.42-1.96h0c-.34-.72-.56-1.49-.64-2.33v-.06c-.15-1.4-.35-3.4-.26-5.73-1.33-.35-2.37-.84-3.17-1.38-1.08-.73-1.76-1.57-2.18-2.38-.29-.02-.6-.06-.91-.13-.17-.04-.35-.09-.53-.15-.38-.13-.71-.34-.98-.61-2.7,.37-5.06-.06-6.84-1.01-1.28-.68-2.28-1.64-2.92-2.77-.66-1.17-.93-2.51-.73-3.91,.21-1.44,.92-2.94,2.22-4.35-.02-.07-.04-.15-.06-.22-.43-1.76-.29-3.61,.62-5.38,.69-1.34,1.81-2.61,3.44-3.71,.14-1.09,.46-2.08,.93-2.96,1-1.85,2.65-3.18,4.67-3.93,1.91-.72,4.16-.91,6.48-.55,2.93,.46,5.99,1.83,8.61,4.17,.17,.16,.32,.31,.44,.47,.12,.16,.23,.34,.33,.54h0c2.14,4.36,3.46,8.67,4.08,10.96,1.11-.28,2.31-.5,3.58-.63,.88-.09,1.71-.03,2.51,.19,.68,.18,1.32,.47,1.93,.86-1.73-2.17-3.22-4.55-4.4-7.16-.83-1.82-1.52-3.71-2.08-5.65Zm2.56-33.52c-.95,.1-2.02,.34-3.01,.87-1.05,.55-2.03,1.44-2.72,2.82-1.35,2.69-2.51,6.85-2.94,11.16-.32,3.24-.22,6.53,.54,9.27,.7,2.53,1.96,4.57,3.97,5.58,.24,.12,.49,.23,.76,.32-.67-3.33-.96-6.77-.89-10.23,.13-6.72,1.61-13.52,4.31-19.78Zm81.38,37.83c2.52-5.52,3.66-11.72,3.54-18-.12-6.29-1.52-12.68-4.07-18.59-14.98-34.71-62.89-34.71-77.87,0-2.55,5.91-3.94,12.29-4.07,18.59-.12,6.28,1.02,12.47,3.54,18,12.94,28.38,65.99,28.38,78.93,0Z"/>
      <path class="cls-9" d="M122.05,41.35c8.85-2.87,17.3-1.25,18.88,3.62,1.58,4.87-4.31,11.15-13.15,14.02-8.85,2.87-17.3,1.25-18.88-3.62-1.58-4.87,4.31-11.15,13.15-14.02"/>
      <path class="cls-8" d="M45.12,118.25c1.06,5.09,.67,4.7,5.76,5.76,.19,.04,.32,.2,.32,.39s-.13,.35-.32,.39c-5.09,1.06-4.7,.67-5.76,5.76-.04,.19-.2,.32-.39,.32s-.35-.13-.39-.32c-1.06-5.09-.67-4.7-5.76-5.76-.19-.04-.32-.2-.32-.39s.13-.35,.32-.39c5.09-1.06,4.7-.67,5.76-5.76,.04-.19,.2-.32,.39-.32s.35,.13,.39,.32"/>
      <path class="cls-8" d="M222.7,118.25c-1.06,5.09-.67,4.7-5.76,5.76-.19,.04-.32,.2-.32,.39s.13,.35,.32,.39c5.09,1.06,4.7,.67,5.76,5.76,.04,.19,.2,.32,.39,.32s.35-.13,.39-.32c1.06-5.09,.67-4.7,5.76-5.76,.19-.04,.32-.2,.32-.39s-.13-.35-.32-.39c-5.09-1.06-4.7-.67-5.76-5.76-.04-.19-.2-.32-.39-.32s-.35,.13-.39,.32"/>
      <path class="cls-8" d="M70.82,52.82c.73,3.5,.46,3.24,3.97,3.97,.13,.03,.22,.14,.22,.27s-.09,.24-.22,.27c-3.5,.73-3.24,.46-3.97,3.97-.03,.13-.14,.22-.27,.22s-.24-.09-.27-.22c-.73-3.5-.46-3.24-3.97-3.97-.13-.03-.22-.14-.22-.27s.09-.24,.22-.27c3.5-.73,3.24-.46,3.97-3.97,.03-.13,.14-.22,.27-.22s.24,.09,.27,.22"/>
      <path class="cls-8" d="M44.89,77.82c.73,3.5,.46,3.24,3.97,3.97,.13,.03,.22,.14,.22,.27s-.09,.24-.22,.27c-3.5,.73-3.24,.46-3.97,3.97-.03,.13-.14,.22-.27,.22s-.24-.09-.27-.22c-.73-3.5-.46-3.24-3.97-3.97-.13-.03-.22-.14-.22-.27s.09-.24,.22-.27c3.5-.73,3.24-.46,3.97-3.97,.03-.13,.14-.22,.27-.22s.24,.09,.27,.22"/>
      <path class="cls-8" d="M222.93,77.82c-.73,3.5-.46,3.24-3.97,3.97-.13,.03-.22,.14-.22,.27s.09,.24,.22,.27c3.5,.73,3.24,.46,3.97,3.97,.03,.13,.14,.22,.27,.22s.24-.09,.27-.22c.73-3.5,.46-3.24,3.97-3.97,.13-.03,.22-.14,.22-.27s-.09-.24-.22-.27c-3.5-.73-3.24-.46-3.97-3.97-.03-.13-.14-.22-.27-.22s-.24,.09-.27,.22"/>
      <path class="cls-8" d="M129.46,131.9c0,1.72-.7,3.27-1.82,4.4-1.13,1.13-2.68,1.82-4.4,1.82s-3.27-.7-4.4-1.83h0c-1.13-1.12-1.82-2.68-1.82-4.4s.7-3.27,1.82-4.4h0c1.13-1.13,2.68-1.83,4.4-1.83s3.27,.7,4.4,1.82h0c1.13,1.13,1.83,2.69,1.83,4.4m19.54,4.4c-1.13,1.13-2.68,1.83-4.4,1.83s-3.27-.7-4.4-1.82c-1.13-1.13-1.82-2.68-1.82-4.4s.7-3.27,1.83-4.4h0c1.13-1.13,2.68-1.83,4.4-1.83s3.27,.7,4.4,1.82h0c1.13,1.13,1.82,2.69,1.82,4.4s-.7,3.27-1.82,4.4h0Zm7.84,28.45s-9.35,5.59-22.9,5.79h-.04c-13.55-.2-22.87-5.77-22.9-5.79l-.29-.17c-.24-.14-.38-.38-.38-.65l-.2-19.38c0-.33,.19-.62,.51-.73l.4-.15c5.19-1.87,14.06-2.8,22.88-2.8s17.68,.93,22.88,2.8l.4,.15c.31,.11,.51,.4,.51,.73v.43s-.2,18.95-.2,18.95c0,.28-.14,.51-.38,.65l-.29,.17Zm7.73,2.71c2.66-5.42,7.84-20.39-4.6-38.09-.21-.3-.18-.7,.07-.97,.25-.27,.65-.32,.96-.12,2.64,1.63,4.71,4.36,6.27,7.47,1.02-.38,2.6-1,4.53-1.91-.1-7.57-.32-18.13-6.62-22.33-7.45,11.26-31.23,11.19-31.31,11.19-.08,0-23.81,.07-31.3-11.15-6.24,4.23-6.46,14.74-6.56,22.29,1.93,.91,3.51,1.53,4.53,1.91,1.56-3.11,3.63-5.84,6.27-7.47,.31-.19,.71-.14,.96,.12,.25,.27,.28,.67,.07,.97-12.44,17.7-7.26,32.67-4.6,38.09,.16,.32,.08,.69-.19,.92-.27,.23-.65,.25-.94,.04-1.59-1.12-2.75-2.66-3.58-4.43l-6.29,6.34c4.21,1.66,12.78,6.69,20.69,21.56l6.89-9.78c-2.81,0-4.78-1.64-5.68-2.58-.11-.11-.14-.27-.08-.42,.06-.14,.2-.23,.35-.23h39c.16,0,.29,.09,.35,.23,.06,.14,.03,.3-.08,.42-.9,.94-2.87,2.58-5.68,2.58h-.02l6.89,9.78c7.91-14.87,16.48-19.9,20.69-21.56l-6.3-6.34c-.83,1.78-1.99,3.32-3.58,4.43-.29,.2-.67,.19-.94-.04-.27-.23-.35-.6-.19-.92Z"/>
      <path class="cls-5" d="M103.25,167.45c.16,.32,.08,.69-.19,.92-.27,.23-.65,.25-.94,.04-1.59-1.12-2.75-2.66-3.58-4.43l-6.29,6.34c4.48-4.86,20.2,6.61,15.67,11.31,4.07,5.97,5.02,10.25,5.02,10.25l6.89-9.78c-2.81,0-4.78-1.64-5.68-2.58-.11-.11-.14-.27-.08-.42,.06-.14,.2-.23,.35-.23h38.98c.16,0,.29,.09,.35,.23,.06,.14,.03,.3-.08,.42-.9,.94-2.87,2.58-5.68,2.58l6.89,9.78s.95-4.28,5.02-10.25c-4.53-4.7,11.2-16.18,15.67-11.31l-6.3-6.34c-.83,1.78-1.99,3.32-3.58,4.43-.29,.2-.67,.19-.94-.04-.27-.23-.35-.6-.19-.92,0,0,1.19-3.98,1.68-9.23-1.78,3.34-4.59,3.41-6.03,3.24-2.17-.25-2.68-2.36-2.68-2.37l-.05,4.83c0,.28-.14,.51-.38,.65l-.29,.17s-.58,.35-1.64,.86l-.09,.04c-1.27,.61-3.2,1.46-5.68,2.27h0c-3.95,1.3-9.27,2.52-15.49,2.61v.64s-.02-.64-.02-.64c-6.22-.09-11.54-1.31-15.49-2.61h0c-2.47-.81-4.41-1.66-5.68-2.27l-.09-.04c-1.06-.52-1.63-.86-1.64-.86l-.29-.17c-.24-.14-.38-.38-.38-.65l-.05-4.83s-.52,2.12-2.68,2.37c-1.44,.17-4.25,.1-6.03-3.24,.5,5.26,1.68,9.23,1.68,9.23"/>
      <path class="cls-5" d="M128.81,122.43c-6.77-.59-18.63-2.54-24.68-8.95h0s2.7,3.54,2,6.78c-.34,1.54-1.33,2.87-2.29,3.84-1.17,1.19-2.83,1.58-4.4,1.02-.78-.28-1.74-.65-2.86-1.16-.45,3.37-.51,6.85-.55,9.87,1.93,.91,3.51,1.53,4.53,1.91,1.56-3.11,3.63-5.84,6.27-7.47,.31-.19,.71-.14,.96,.12,.25,.27,.28,.67,.07,.97-2.9,4.13-4.85,8.12-6.09,11.86,.08-.17,8.67-18.62,27.05-18.79"/>
      <path class="cls-8" d="M177.71,172.47c-2.91,.84-12.3,4.76-21.05,21.94l1.78,2.53c.42,.6,.96,1.04,1.57,1.3,.61,.26,1.31,.35,2.04,.24l4.81-.72c.55-1.39,1.34-3.31,2.33-5.54h0c1.01-2.27,2.22-4.87,3.6-7.59,2.27-4.47,4.9-7.58,7.56-9.49l-2.65-2.67Z"/>
      <path class="cls-8" d="M111.16,194.41c-8.75-17.18-18.13-21.1-21.05-21.94l-2.65,2.67c2.66,1.91,5.29,5.01,7.56,9.49,1.38,2.72,2.59,5.32,3.6,7.59h0c.99,2.24,1.78,4.15,2.33,5.54l4.81,.72c.73,.11,1.43,.02,2.04-.24,.61-.26,1.15-.7,1.57-1.3l1.78-2.53Z"/>
      <path class="cls-5" d="M111.16,194.41c-2.01-3.94-4.05-7.18-6.04-9.85-.37,.38-.71,.73-1.01,1.04-1.16,1.19-2.83,1.53-4.37,.91-1.67-.68-3.95-2.08-6.48-4.97h0c.6,.95,1.19,1.97,1.75,3.09,1.38,2.72,2.59,5.32,3.6,7.59h0c.99,2.24,1.78,4.15,2.33,5.54l4.81,.72c.73,.11,1.43,.02,2.04-.24,.61-.26,1.15-.7,1.57-1.3l1.78-2.53Z"/>
      <path class="cls-8" d="M95.67,193.51c-.95-2.15-2.13-4.67-3.54-7.44-1.31-2.59-2.72-4.64-4.16-6.19,.53,2.29,.76,5,1,7.92,.57,6.75,1.25,14.77,6.4,20.49,1.05-.82,1.78-1.82,2.27-2.82,.86-1.72,1.05-3.42,1.08-4.24,0-.09,0-.16,0-.22,0-.06-.03-.13-.06-.21-.38-1.01-1.39-3.64-3.01-7.29h0Z"/>
      <path class="cls-5" d="M95.39,208.3c1.05-.82,1.78-1.82,2.27-2.82,.86-1.72,1.05-3.42,1.08-4.24,0-.09,0-.16,0-.22,0-.06-.03-.13-.06-.21-.33-.87-1.12-2.95-2.38-5.85,1.85,4.56-1.47,8.88-4.39,4.81,1.47,5.21,3.48,8.53,3.48,8.53"/>
      <path class="cls-8" d="M85.76,188.07c-.55-6.54-1-11.78-5.36-12.05-.5,.04-.97,.15-1.42,.33-1.05,.41-1.97,1.19-2.68,2.29-1.15,1.78-1.77,4.35-1.6,7.58l11.22,3.75c-.06-.65-.11-1.28-.16-1.91"/>
      <path class="cls-8" d="M86.23,192.97l-11.16-3.73c.16,.84,.36,1.71,.61,2.62,.33,1.16,.75,2.25,1.25,3.27l10.22,3.42c-.42-1.86-.71-3.74-.93-5.58"/>
      <path class="cls-8" d="M88.04,201.73l-8.77-2.93c.83,1.04,1.73,1.99,2.67,2.85,2.83,2.57,6.01,4.34,8.58,5.5-1.06-1.73-1.86-3.55-2.48-5.41"/>
      <path class="cls-8" d="M172.16,193.52c-1.62,3.65-2.63,6.28-3.01,7.29-.03,.08-.05,.14-.06,.21,0,.06-.01,.13,0,.22,.04,.82,.23,2.52,1.08,4.24,.5,1,1.22,2,2.27,2.82,5.15-5.71,5.83-13.74,6.4-20.49,.25-2.92,.48-5.63,1-7.92-1.44,1.56-2.85,3.61-4.16,6.19-1.4,2.77-2.58,5.29-3.54,7.44h0Z"/>
      <path class="cls-8" d="M181.9,189.98l11.22-3.75c.18-3.23-.45-5.81-1.6-7.58-.71-1.1-1.63-1.88-2.68-2.29-.45-.18-.92-.29-1.42-.33-4.36,.27-4.81,5.51-5.36,12.05-.05,.63-.11,1.26-.16,1.91"/>
      <path class="cls-8" d="M192.75,189.24l-11.16,3.73c-.22,1.84-.5,3.71-.93,5.58l10.22-3.42c.5-1.02,.93-2.11,1.25-3.27,.25-.91,.46-1.78,.61-2.62"/>
      <path class="cls-8" d="M188.56,198.8l-8.77,2.93c-.62,1.86-1.42,3.68-2.48,5.41,2.56-1.15,5.75-2.93,8.58-5.5,.94-.86,1.85-1.81,2.67-2.85"/>
      <path class="cls-8" d="M133.93,167.8c10.16-.15,17.73-3.46,20.44-4.83,.26-.13,.42-.38,.42-.68l.16-15.78c0-.35-.22-.65-.55-.74-5.01-1.44-12.73-2.15-20.48-2.15s-15.47,.72-20.48,2.15c-.34,.1-.56,.39-.55,.74l.16,15.78c0,.29,.16,.54,.42,.68,2.71,1.37,10.28,4.68,20.44,4.83,0,0,.01,0,.02,0"/>
      <path class="cls-9" d="M123.24,135.38c.96,0,1.83-.39,2.46-1.02,.63-.63,1.02-1.5,1.02-2.46s-.39-1.83-1.01-2.46h0c-.63-.63-1.5-1.02-2.46-1.02s-1.83,.39-2.46,1.01h0c-.63,.63-1.01,1.5-1.01,2.46s.39,1.83,1.02,2.46h0c.63,.63,1.49,1.02,2.46,1.02"/>
      <path class="cls-4" d="M121.84,129.72c-.15,.1-.29,.21-.43,.34h0c-.49,.49-.75,1.15-.75,1.83s.27,1.34,.76,1.83l.1,.1s0,0,0,0c.47,.42,1.08,.65,1.72,.65,.4,0,.79-.09,1.15-.27,.08-.04,.12-.13,.1-.22-.02-.09-.09-.15-.18-.15-.62-.01-1.21-.24-1.67-.65,0,0,0,0,0,0l-.1-.1c-.49-.49-.76-1.14-.76-1.83,0-.46,.12-.9,.34-1.29,.04-.08,.03-.17-.03-.24-.07-.06-.16-.07-.24-.02"/>
      <path class="cls-9" d="M142.15,134.36c.63,.63,1.5,1.02,2.46,1.02s1.83-.39,2.46-1.01h0c.63-.63,1.02-1.5,1.02-2.46s-.39-1.83-1.01-2.46h0c-.63-.63-1.49-1.02-2.46-1.02s-1.83,.39-2.46,1.02h0c-.63,.63-1.01,1.49-1.01,2.46s.39,1.83,1.02,2.46"/>
      <path class="cls-8" d="M93.3,132.48c.14-8.11,.73-18.7,8-23.37-.53-1.33-.86-2.79-.93-4.4l-3.95-2.87c-2.84,1.95-11.21,9.01-11.78,25.17,3.05,2.29,6.05,4.09,8.67,5.47"/>
      <path class="cls-5" d="M93.11,122.24c-2.08-1.13-4.48-2.6-7.14-4.52-.72,2.69-1.22,5.77-1.34,9.28,3.05,2.29,6.05,4.09,8.67,5.47,0,0-.85-3.39-.19-10.24"/>
      <path class="cls-8" d="M82.01,124.92c1.12-14.67,8.48-22.01,12.07-24.76-.29-.18-.6-.31-.9-.39-.43-.12-.88-.15-1.36-.1-2.43,.25-4.53,.88-6.25,1.63-2.56,1.12-4.25,2.47-4.96,3.21-.13,.14-.24,.27-.33,.39-.09,.12-.18,.27-.27,.44-3,5.67-2.41,11.53-2.12,14.48v.06c.05,.46,.16,.87,.35,1.25h0c.18,.38,.43,.72,.77,1.05,.99,.97,2,1.88,3.01,2.73"/>
      <path class="cls-5" d="M82.84,115.36c-1.55-1.23-3.16-2.59-4.84-4.12-.62,3.52-.31,6.67-.12,8.59v.06c.05,.46,.16,.87,.35,1.25h0c.18,.38,.43,.72,.77,1.05,.99,.97,2,1.88,3.01,2.73,0,0-.08-4.49,.84-9.56"/>
      <path class="cls-8" d="M77.65,103.03c.19-.26,.39-.5,.61-.73,.75-.79,2.36-2.11,4.67-3.31-.92-1.6-2.83-4.21-6.03-5.48-1.64-.65-3.48,1.07-5,3.48-.71,1.12-1.33,2.4-1.84,3.68-.5,1.28-.88,2.57-1.1,3.72-.32,1.66-.46,2.88-.28,2.95,.06,.02,.11,.04,.17,.05,.8,.18,1.71-.39,2.59-1.4,1.13-1.29,2.13-3.23,2.88-5.39,0,0,0-.02,0-.02,.12-.35,.46-.56,.83-.51,.37,.05,.64,.34,.66,.71,.21,3.34-1.13,7.14-3.55,8.9,.2,.23,.45,.47,.78,.69,.43,.29,.98,.56,1.68,.79,.37-2.31,1.09-4.81,2.41-7.3,.15-.29,.32-.55,.51-.82"/>
      <path class="cls-5" d="M77.65,103.03c.19-.26,.39-.5,.61-.73,.63-.66,1.86-1.7,3.61-2.73h0s-.95-3.57-5.24-6.15c-1.57-.37-3.29,1.29-4.72,3.56-.71,1.12-1.33,2.4-1.84,3.68-.06,.15-.11,.3-.17,.45,0,0,.72-1.21,1.8-.91,1.09,.3,1,3.11-1.39,6.81,.38-.25,.76-.6,1.14-1.03,1.13-1.29,2.13-3.23,2.88-5.39,0,0,0-.02,0-.02,.12-.35,.46-.56,.83-.51,.37,.05,.64,.34,.66,.71,.21,3.34-1.13,7.14-3.55,8.9,.2,.23,.45,.47,.78,.69,.43,.29,.98,.56,1.68,.79,.37-2.31,1.09-4.81,2.41-7.3,.15-.29,.32-.55,.51-.82"/>
      <path class="cls-8" d="M76.48,90.13c.53,.04,1.07,.16,1.61,.37,2.51,1,4.4,2.64,5.75,4.22-1.97-5.95-2.89-9.48-9.87-10.58-1.77-.28-3.46-.14-4.86,.38-1.3,.49-2.34,1.31-2.95,2.44-.48,.88-.7,1.98-.59,3.3,.13,1.51,.59,2.83,1.34,3.91,.49,.7,1.11,1.3,1.85,1.78,.14-.24,.28-.47,.42-.69,1.17-1.87,2.57-3.42,4.12-4.32-.56-1.12-1.89-1.61-3.27-1.76-.34-.04-.6-.28-.67-.62-.06-.34,.09-.66,.39-.82,.32-.17,.66-.31,.99-.42,.94-.3,1.91-.34,2.79-.1,.95,.26,1.78,.83,2.37,1.73,.23,.34,.42,.74,.56,1.17"/>
      <path class="cls-5" d="M76.48,90.13c.53,.04,1.07,.16,1.61,.37,1.29,.51,2.41,1.19,3.38,1.95,0,0,0-5.41-6.74-8.18h0c-.25-.05-.5-.09-.77-.14-1.77-.28-3.46-.14-4.86,.38-1.3,.49-2.34,1.31-2.95,2.44-.48,.88-.7,1.98-.59,3.3,.03,.41,.09,.8,.17,1.18,0,0,1.8-1.65,3.24-.17,1.44,1.48,1.35,1.43,1.74,1.89h0s0,0,0,0c.8-.92,1.66-1.69,2.58-2.22-.56-1.12-1.89-1.61-3.27-1.76-.34-.04-.6-.28-.67-.62-.06-.34,.09-.66,.39-.82,.32-.17,.66-.31,.99-.42,.94-.3,1.91-.34,2.79-.1,.95,.26,1.78,.83,2.37,1.73,.23,.34,.42,.74,.56,1.17"/>
      <path class="cls-8" d="M67.32,98.85c-1.23-.73-2.26-1.69-3.06-2.82-.76-1.07-1.3-2.3-1.63-3.65-.35,.39-.63,.79-.84,1.2-.53,1.03-.61,2.11-.35,3.16,.27,1.11,.92,2.18,1.84,3.11,.82,.83,1.84,1.53,2.98,2.01,.22-.78,.49-1.58,.81-2.37,.08-.21,.17-.42,.26-.63"/>
      <path class="cls-5" d="M67.32,98.85c-1.23-.73-2.26-1.69-3.06-2.82-.76-1.07-1.3-2.3-1.63-3.65-.35,.39-.63,.79-.84,1.2-.53,1.03-.61,2.11-.35,3.16,.09,.37,.22,.74,.4,1.1,.2-.22,.46-.44,.79-.58,.52-.23,.95-.01,1.21,.2,.05,.05,.1,.1,.15,.16,1.19,1.27,2.24,2.32,2.72,2.8,.11-.31,.22-.62,.34-.93,.08-.21,.17-.42,.26-.63"/>
      <path class="cls-5" d="M65.6,105.06c-1.77-.65-3.37-1.69-4.62-2.96-.37-.37-.71-.77-1.02-1.18-.34,.55-.54,1.09-.62,1.6-.1,.68,.03,1.32,.34,1.88,.34,.6,.89,1.12,1.63,1.51,1.08,.58,2.53,.87,4.23,.73-.02-.49,0-1.02,.06-1.57"/>
      <path class="cls-8" d="M133.92,83.33c-18.14,0-32.84-10.88-32.84-24.31s14.7-24.31,32.84-24.31,32.84,10.88,32.84,24.31-14.7,24.31-32.84,24.31m-39.46,5.69c12.94,28.38,65.99,28.38,78.93,0,2.52-5.52,3.66-11.72,3.54-18-.12-6.29-1.52-12.68-4.07-18.59-14.98-34.71-62.89-34.71-77.87,0-2.55,5.91-3.94,12.29-4.07,18.59-.12,6.28,1.02,12.47,3.54,18Z"/>
      <path class="cls-5" d="M94.46,89.02c6.47,14.19,22.97,21.28,39.46,21.28,16.5,0,32.99-7.09,39.46-21.28,.69-1.51,1.28-3.08,1.76-4.68-9.32,28.94-73.13,28.94-82.45,0,.49,1.6,1.07,3.16,1.76,4.68"/>
      <path class="cls-8" d="M164.13,104.82c-16.86,11.92-43.69,11.9-60.52-.07,1.13,14.79,30.17,14.73,30.26,14.73,.09,0,29.04,.07,30.26-14.65"/>
      <path class="cls-5" d="M127.14,113.36c-8.59-.99-16.85-3.85-23.53-8.61,.14,1.88,.74,3.53,1.67,4.96,.08,.07,3.68,3.42,10.79,5.84-.21-.34-.33-.71-.3-1.12,.16-2.21,6.36-1.43,11.34-1.07h.03Z"/>
      <path class="cls-8" d="M166.46,109.07c7.33,4.65,7.92,15.28,8.06,23.41,2.62-1.38,5.62-3.19,8.67-5.47-.57-16.15-8.94-23.22-11.78-25.17l-4.04,2.94c-.08,1.56-.39,2.99-.91,4.29"/>
      <path class="cls-8" d="M173.75,100.16c3.59,2.74,10.95,10.09,12.07,24.76,1.01-.85,2.02-1.77,3.01-2.73,.33-.33,.59-.67,.77-1.04h0c.18-.38,.29-.8,.34-1.25v-.06c.3-2.95,.89-8.82-2.11-14.48-.09-.17-.18-.31-.27-.44-.09-.12-.2-.25-.33-.39-.71-.74-2.4-2.09-4.96-3.21-1.73-.75-3.83-1.39-6.25-1.63-.48-.05-.93-.02-1.36,.1-.31,.08-.61,.21-.9,.39"/>
      <path class="cls-8" d="M87.7,70.97c.13-6.72,1.61-13.52,4.31-19.78-.95,.1-2.02,.34-3.01,.87-1.05,.55-2.03,1.44-2.72,2.82-1.35,2.69-2.51,6.85-2.94,11.16-.32,3.24-.22,6.53,.54,9.27,.7,2.53,1.96,4.57,3.97,5.58,.24,.12,.49,.23,.76,.32-.67-3.33-.96-6.77-.89-10.23"/>
      <path class="cls-5" d="M86.27,54.88c-1.35,2.69-2.51,6.85-2.94,11.16-.32,3.24-.22,6.53,.54,9.27,.7,2.53,1.96,4.57,3.97,5.58,.24,.12,.49,.23,.76,.32-.56-2.82-.86-5.71-.9-8.63-.44-.05-1.37-.26-2.68-1.1,0,0-1.95-6.72,1.26-16.59"/>
      <path class="cls-8" d="M175.84,51.19c2.7,6.26,4.18,13.06,4.31,19.78,.07,3.46-.22,6.89-.89,10.23,.26-.09,.52-.2,.76-.32,2.01-1.01,3.27-3.05,3.97-5.58,.76-2.74,.86-6.03,.54-9.27-.43-4.3-1.59-8.46-2.94-11.16-.7-1.39-1.68-2.27-2.72-2.82-.99-.53-2.06-.77-3.01-.87"/>
      <path class="cls-8" d="M195.92,96.97c-1.51-2.4-3.36-4.13-5-3.48-3.2,1.27-5.11,3.89-6.03,5.48,2.31,1.19,3.91,2.52,4.67,3.31,.22,.23,.42,.47,.61,.73,.19,.26,.35,.53,.51,.82,1.32,2.5,2.04,4.99,2.41,7.3,.7-.23,1.25-.5,1.68-.79,.33-.22,.58-.46,.78-.69-2.41-1.76-3.75-5.56-3.55-8.9,.02-.37,.3-.66,.66-.71,.37-.05,.71,.16,.83,.51,0,0,0,.02,0,.02,.75,2.17,1.75,4.1,2.88,5.39,.88,1.01,1.79,1.58,2.59,1.4,.06-.01,.12-.03,.17-.05,.18-.06,.04-1.29-.28-2.95-.22-1.16-.6-2.44-1.1-3.72-.51-1.29-1.13-2.56-1.84-3.68"/>
      <path class="cls-8" d="M191.35,90.13c.15-.44,.34-.83,.56-1.17,.6-.9,1.43-1.47,2.37-1.73,.89-.24,1.85-.2,2.79,.1,.33,.11,.67,.25,.99,.42,.3,.16,.46,.49,.39,.82-.06,.34-.33,.58-.67,.62-1.37,.15-2.71,.63-3.27,1.76,1.55,.89,2.95,2.45,4.12,4.32,.14,.23,.28,.46,.42,.69,.74-.48,1.36-1.08,1.85-1.78,.76-1.07,1.22-2.4,1.34-3.91,.11-1.31-.11-2.41-.59-3.3-.61-1.13-1.66-1.96-2.95-2.44-1.4-.53-3.09-.66-4.86-.38-6.98,1.1-7.9,4.63-9.87,10.58,1.35-1.58,3.23-3.22,5.75-4.22,.55-.22,1.08-.34,1.61-.37"/>
      <path class="cls-8" d="M203.56,96.03c-.8,1.13-1.83,2.09-3.06,2.82,.09,.21,.17,.42,.26,.63,.31,.79,.58,1.59,.81,2.37,1.14-.48,2.16-1.18,2.98-2.01,.91-.92,1.56-2,1.84-3.11,.26-1.04,.17-2.13-.35-3.16-.21-.41-.49-.81-.84-1.2-.32,1.35-.87,2.57-1.63,3.65"/>
      <path class="cls-5" d="M206.84,102.11c-1.25,1.27-2.85,2.31-4.62,2.96,.06,.55,.08,1.08,.06,1.57,1.7,.14,3.15-.15,4.23-.73,.74-.39,1.3-.91,1.63-1.51,.31-.55,.44-1.19,.34-1.88-.07-.51-.27-1.05-.62-1.6-.31,.41-.65,.81-1.02,1.18"/>
      <path class="cls-8" d="M197,52.82c-.73,3.5-.46,3.24-3.97,3.97-.13,.03-.22,.14-.22,.27s.09,.24,.22,.27c3.5,.73,3.24,.46,3.97,3.97,.03,.13,.14,.22,.27,.22s.24-.09,.27-.22c.73-3.5,.46-3.24,3.97-3.97,.13-.03,.22-.14,.22-.27s-.09-.24-.22-.27c-3.5-.73-3.24-.46-3.97-3.97-.03-.13-.14-.22-.27-.22s-.24,.09-.27,.22"/>
      <path class="cls-2" d="M50.15,179.79c3.26-.87,5.61-3.42,6.39-6.47,.07-.28-.08-.57-.35-.68-.27-.11-.58,0-.72,.26-.91,1.67-2.47,2.97-4.45,3.5-3.84,1.03-7.78-1.25-8.81-5.09-.74-2.76,.23-5.57,2.25-7.31,.22-.19,.27-.51,.1-.76-.16-.24-.47-.33-.74-.2-3.77,1.86-5.82,6.17-4.7,10.39,1.28,4.8,6.21,7.64,11.01,6.36"/>
      <path class="cls-8" d="M158.76,201.21c-1.16-.5-2.18-1.31-2.95-2.41l-11.76-16.69h-20.28l-11.76,16.69c-.77,1.1-1.79,1.91-2.95,2.41-1.16,.5-2.45,.66-3.77,.47l-3.33-.5c0,.07,0,.13,0,.2-.05,1.08-.3,3.3-1.41,5.54-.72,1.45-1.81,2.92-3.44,4.12-.56,.41-1.19,.68-1.85,.78-.66,.11-1.33,.05-2-.16-2.55-.82-8.51-3.09-13.49-7.62-3.11-2.83-5.85-6.53-7.19-11.3-1.94-6.91-1.2-12.41,1.02-15.84,1.09-1.68,2.53-2.89,4.21-3.54,1.68-.66,3.56-.76,5.51-.24,.4,.11,.8,.24,1.21,.4l12.84-12.93c-.93-3.87-.86-8.2-.53-11.61,.29-3.03,1.07-6.75,2.41-10.27-2.11-.79-6.08-2.44-10.66-5.17l-.18,.04c-10.68,2.36-20.77,5.53-30.09,9.4-9.01,3.74-17.28,8.12-24.66,13.04,1.59,4.31,3.45,8.49,5.55,12.52,.71-2.34,2.36-4.35,4.62-5.47,.26-.13,.57-.04,.74,.2,.16,.24,.12,.56-.1,.76-2.03,1.75-2.99,4.56-2.25,7.31,1.03,3.84,4.97,6.11,8.81,5.08,1.98-.53,3.54-1.84,4.45-3.5,.14-.26,.45-.37,.72-.26,.27,.11,.42,.4,.35,.68-.78,3.05-3.13,5.6-6.39,6.47-1.36,.36-2.73,.4-4.02,.15,3.65,5.25,7.75,10.15,12.26,14.66,19.33,19.33,46.03,31.28,75.53,31.28s56.2-11.96,75.53-31.28c4.51-4.51,8.61-9.41,12.26-14.66-1.29,.25-2.66,.22-4.02-.15-3.26-.87-5.61-3.42-6.39-6.47-.07-.28,.08-.57,.35-.68,.27-.11,.58,0,.72,.26,.91,1.67,2.47,2.97,4.45,3.5,3.84,1.03,7.78-1.25,8.81-5.08,.74-2.76-.23-5.57-2.25-7.31-.22-.19-.27-.51-.1-.76,.16-.24,.47-.33,.74-.2,2.27,1.12,3.92,3.13,4.62,5.47,2.11-4.03,3.97-8.21,5.55-12.52-7.38-4.92-15.66-9.3-24.66-13.04-9.32-3.87-19.42-7.04-30.09-9.4l-.18-.04c-4.58,2.73-8.55,4.38-10.66,5.17,1.35,3.52,2.12,7.24,2.41,10.27,.32,3.42,.4,7.75-.53,11.61l12.84,12.93c.41-.16,.81-.3,1.21-.4,1.96-.52,3.84-.42,5.51,.24,1.67,.66,3.12,1.86,4.21,3.54,2.22,3.43,2.96,8.93,1.02,15.84-1.34,4.77-4.08,8.47-7.19,11.3-4.99,4.53-10.94,6.8-13.49,7.62-.67,.21-1.34,.27-2,.16-.66-.11-1.29-.37-1.85-.78-1.63-1.19-2.72-2.66-3.44-4.12-1.12-2.24-1.36-4.47-1.41-5.54,0-.07,0-.13,0-.2l-3.33,.5c-1.32,.2-2.61,.03-3.77-.47"/>
      <path class="cls-4" d="M145.99,129.72c.15,.1,.29,.21,.43,.34h0c.49,.49,.75,1.15,.75,1.83s-.27,1.34-.76,1.83l-.1,.1s0,0,0,0c-.47,.42-1.08,.65-1.72,.65-.4,0-.79-.09-1.15-.27-.08-.04-.12-.13-.1-.22,.02-.09,.09-.15,.18-.15,.62-.01,1.21-.24,1.67-.65,0,0,0,0,0,0l.1-.1c.49-.49,.76-1.14,.76-1.83,0-.46-.12-.9-.34-1.29-.04-.08-.03-.17,.03-.24,.07-.06,.16-.07,.24-.02"/>
      <path class="cls-5" d="M181.57,54.88c1.35,2.69,2.51,6.85,2.94,11.16,.32,3.24,.22,6.53-.54,9.27-.7,2.53-1.96,4.57-3.97,5.58-.24,.12-.49,.23-.76,.32,.56-2.82,.86-5.71,.9-8.63,.44-.05,1.37-.26,2.68-1.1,0,0,1.95-6.72-1.26-16.59"/>
      <path class="cls-7" d="M126.51,133.07c-.34,.17-.72,.26-1.13,.26-.7,0-1.34-.28-1.8-.74h0c-.46-.46-.74-1.1-.74-1.8s.28-1.34,.74-1.8h0c.17-.18,.37-.33,.6-.45-.3-.08-.62-.13-.95-.13-.96,0-1.83,.39-2.46,1.01h0c-.53,.53-.88,1.23-.98,2.02,.37-.68,.99-1.42,2.04-1.73,.08-.05,.17-.04,.24,.02,.07,.06,.08,.16,.03,.24-.22,.39-.34,.83-.34,1.29,0,.69,.27,1.34,.76,1.83l.1,.1s0,0,0,0c.46,.41,1.05,.64,1.67,.65,.09,0,.16,.06,.18,.15,0,.04,0,.09-.01,.13-.02,.04-.05,.07-.09,.09-.06,.03-.12,.06-.19,.08-.62,.36-2.19,1.07-3.42,.05h0c.63,.63,1.49,1.02,2.46,1.02s1.83-.39,2.46-1.02c.36-.36,.64-.8,.82-1.29"/>
      <path class="cls-7" d="M141.33,133.07c.34,.17,.72,.26,1.13,.26,.7,0,1.34-.28,1.8-.74h0c.46-.46,.74-1.1,.74-1.8s-.28-1.34-.74-1.8h0c-.17-.18-.37-.33-.6-.45,.3-.08,.62-.13,.95-.13,.96,0,1.83,.39,2.46,1.01h0c.53,.53,.88,1.23,.98,2.02-.37-.68-.99-1.42-2.04-1.73-.08-.05-.17-.04-.24,.02-.07,.06-.08,.16-.03,.24,.22,.39,.34,.83,.34,1.29,0,.69-.27,1.34-.76,1.83l-.1,.1s0,0,0,0c-.46,.41-1.05,.64-1.67,.65-.09,0-.16,.06-.18,.15,0,.04,0,.09,.01,.13,.02,.04,.05,.07,.09,.09,.06,.03,.12,.06,.19,.08,.62,.36,2.19,1.07,3.42,.05h0c-.63,.63-1.49,1.02-2.46,1.02s-1.83-.39-2.46-1.02c-.36-.36-.64-.8-.82-1.29"/>
      <path class="cls-5" d="M139.01,122.43c6.77-.59,18.63-2.54,24.68-8.95h0s-2.7,3.54-2,6.78c.34,1.54,1.33,2.87,2.29,3.84,1.17,1.19,2.83,1.58,4.4,1.02,.78-.28,1.74-.65,2.86-1.16,.45,3.37,.51,6.85,.55,9.87-1.93,.91-3.51,1.53-4.53,1.91-1.56-3.11-3.63-5.84-6.27-7.47-.31-.19-.71-.14-.96,.12-.25,.27-.28,.67-.07,.97,2.9,4.13,4.85,8.12,6.09,11.86-.08-.17-8.67-18.62-27.05-18.79"/>
      <path class="cls-5" d="M174.72,122.24c2.08-1.13,4.48-2.6,7.14-4.52,.72,2.69,1.22,5.77,1.34,9.28-3.05,2.29-6.05,4.09-8.67,5.47,0,0,.85-3.39,.19-10.24"/>
      <path class="cls-5" d="M184.98,115.36c1.55-1.23,3.16-2.59,4.84-4.12,.62,3.52,.31,6.67,.12,8.59v.06c-.05,.46-.16,.87-.35,1.25h0c-.18,.38-.43,.72-.77,1.05-.99,.97-2,1.88-3.01,2.73,0,0,.08-4.49-.84-9.56"/>
      <path class="cls-6" d="M190.17,103.03c-.19-.26-.39-.5-.61-.73-.63-.66-1.86-1.7-3.61-2.73h0s.95-3.57,5.24-6.15c1.57-.37,3.29,1.29,4.72,3.56,.71,1.12,1.33,2.4,1.84,3.68,.06,.15,.11,.3,.17,.45,0,0-.72-1.21-1.8-.91-1.09,.3-1.43,3.22,1.39,6.81-.38-.25-.76-.6-1.14-1.03-1.13-1.29-2.13-3.23-2.88-5.39,0,0,0-.02,0-.02-.12-.35-.46-.56-.83-.51-.37,.05-.64,.34-.66,.71-.21,3.34,1.13,7.14,3.55,8.9-.2,.23-.45,.47-.78,.69-.43,.29-.98,.56-1.68,.79-.37-2.31-1.09-4.81-2.41-7.3-.15-.29-.32-.55-.51-.82"/>
      <path class="cls-5" d="M140.6,113.43c8.59-.99,16.85-3.85,23.53-8.61-.14,1.88-.74,3.53-1.67,4.96-.08,.07-3.68,3.42-10.79,5.84,.21-.34,.33-.71,.3-1.12-.16-2.21-6.36-1.43-11.34-1.07h-.03Z"/>
      <path class="cls-5" d="M88.04,201.73l-7.23-2.42c2.3,3.06,5.43,5.37,9.7,7.83-1.06-1.73-1.86-3.55-2.48-5.41"/>
      <path class="cls-5" d="M78.64,195.7l8.52,2.85c-.42-1.86-.71-3.74-.93-5.58l-3.03-1.01c-1.49,2.27-3.54,2.94-5.43,1.66,.27,.73,.56,1.42,.87,2.08"/>
      <path class="cls-5" d="M84.39,189.47l1.54,.51c-.06-.65-.11-1.28-.16-1.91-.13-1.49-.25-2.91-.41-4.22-.09,2.19-.44,4.08-.97,5.62"/>
      <path class="cls-5" d="M179.79,201.73l7.23-2.42c-2.3,3.06-5.43,5.37-9.7,7.83,1.06-1.73,1.86-3.55,2.48-5.41"/>
      <path class="cls-5" d="M189.18,195.7l-8.52,2.85c.42-1.86,.71-3.74,.93-5.58l3.03-1.01c1.49,2.27,3.54,2.94,5.43,1.66-.27,.73-.56,1.42-.87,2.08"/>
      <path class="cls-5" d="M183.44,189.47l-1.54,.51c.06-.65,.11-1.28,.16-1.91,.13-1.49,.25-2.91,.41-4.22,.09,2.19,.44,4.08,.97,5.62"/>
      <path class="cls-5" d="M156.66,194.41c2.01-3.94,4.05-7.18,6.04-9.85,.37,.38,.71,.73,1.01,1.04,1.16,1.19,2.83,1.53,4.37,.91,1.67-.68,3.95-2.08,6.48-4.97h0c-.6,.95-1.19,1.97-1.75,3.09-1.38,2.72-2.59,5.32-3.6,7.59h0c-.99,2.24-1.78,4.15-2.33,5.54l-4.81,.72c-.73,.11-1.43,.02-2.04-.24-.61-.26-1.15-.7-1.57-1.3l-1.78-2.53Z"/>
      <path class="cls-5" d="M172.44,208.3c-1.05-.82-1.78-1.82-2.27-2.82-.86-1.72-1.05-3.42-1.08-4.24,0-.09,0-.16,0-.22,0-.06,.03-.13,.06-.21,.33-.87,1.12-2.95,2.38-5.85-1.85,4.56,1.47,8.88,4.39,4.81-1.47,5.21-3.48,8.53-3.48,8.53"/>
      <path class="cls-5" d="M133.91,167.8c-10.16-.15-17.73-3.46-20.44-4.83-.26-.13-.42-.38-.42-.68l1.3-10.88c.96,2.94,2.26,6.37,3.43,7.7,2.22,2.53,12.06,2.92,16.12,3.02,4.06-.1,13.9-.5,16.12-3.02,1.17-1.33,2.47-4.76,3.43-7.7l1.3,10.88c0,.29-.16,.54-.42,.68-2.71,1.37-10.28,4.68-20.44,4.83"/>
      <path class="cls-5" d="M190.17,103.03c-.19-.26-.39-.5-.61-.73-.63-.66-1.86-1.7-3.61-2.73h0s.95-3.57,5.24-6.15c1.57-.37,3.29,1.29,4.72,3.56,.71,1.12,1.33,2.4,1.84,3.68,.06,.15,.11,.3,.17,.45,0,0-.72-1.21-1.8-.91-1.09,.3-1,3.11,1.39,6.81-.38-.25-.76-.6-1.14-1.03-1.13-1.29-2.13-3.23-2.88-5.39,0,0,0-.02,0-.02-.12-.35-.46-.56-.83-.51-.37,.05-.64,.34-.66,.71-.21,3.34,1.13,7.14,3.55,8.9-.2,.23-.45,.47-.78,.69-.43,.29-.98,.56-1.68,.79-.37-2.31-1.09-4.81-2.41-7.3-.15-.29-.32-.55-.51-.82"/>
      <path class="cls-5" d="M191.35,90.13c-.53,.04-1.07,.16-1.61,.37-1.29,.51-2.41,1.19-3.38,1.95,0,0,0-5.41,6.74-8.18h0c.25-.05,.5-.09,.77-.14,1.77-.28,3.46-.14,4.86,.38,1.3,.49,2.34,1.31,2.95,2.44,.48,.88,.7,1.98,.59,3.3-.03,.41-.09,.8-.17,1.18,0,0-1.8-1.65-3.24-.17-1.44,1.48-1.35,1.43-1.74,1.89h0s0,0,0,0c-.8-.92-1.66-1.69-2.58-2.22,.56-1.12,1.89-1.61,3.27-1.76,.34-.04,.6-.28,.67-.62,.06-.34-.09-.66-.39-.82-.32-.17-.66-.31-.99-.42-.94-.3-1.91-.34-2.79-.1-.95,.26-1.78,.83-2.37,1.73-.23,.34-.42,.74-.56,1.17"/>
      <path class="cls-5" d="M200.5,98.85c1.23-.73,2.26-1.69,3.06-2.82,.76-1.07,1.3-2.3,1.63-3.65,.35,.39,.63,.79,.84,1.2,.53,1.03,.61,2.11,.35,3.16-.09,.37-.22,.74-.4,1.1-.2-.22-.46-.44-.79-.58-.52-.23-.95-.01-1.21,.2-.05,.05-.1,.1-.15,.16-1.19,1.27-2.24,2.32-2.72,2.8-.11-.31-.22-.62-.34-.93-.08-.21-.17-.42-.26-.63"/>
      <path class="cls-5" d="M166.76,55.74c0-13.42-14.7-24.31-32.84-24.31s-32.84,10.88-32.84,24.31c0,.56,.03,1.11,.08,1.66,1.13-12.67,15.37-22.68,32.77-22.68s31.63,10.01,32.77,22.68c.05-.55,.08-1.1,.08-1.66"/>
      <path class="cls-5" d="M133.92,220.36h.03c1.42,.02,2.81-.39,3.99-1.17,1.96-1.3,3.13-3.46,3.17-5.76,0-.18-.12-.34-.29-.38-.18-.04-.36,.04-.44,.2-.54,1.1-1.38,2.07-2.44,2.78-1.19,.79-2.57,1.19-3.99,1.17h-.03s0,0-.01,0h-.03c-1.42,.02-2.81-.39-3.99-1.17-1.07-.71-1.9-1.67-2.44-2.78-.08-.16-.26-.25-.44-.2-.18,.04-.3,.2-.29,.38,.05,2.3,1.21,4.47,3.17,5.76,1.19,.79,2.57,1.19,3.99,1.17h.03s0,0,.01,0"/>
      <path class="cls-2" d="M143.75,211.96c.49,3.61-1.06,7.35-4.3,9.5-1.7,1.13-3.63,1.65-5.53,1.63-1.9,.03-3.83-.5-5.53-1.63-3.24-2.15-4.79-5.89-4.3-9.5,.05-.39-.19-.76-.58-.86-.38-.1-.78,.09-.93,.46-2.17,5.3-.37,11.56,4.58,14.84,2.08,1.38,4.43,2.04,6.76,2.03,2.32,0,4.68-.66,6.76-2.03,4.95-3.28,6.75-9.54,4.58-14.84-.15-.37-.55-.56-.93-.46-.38,.1-.63,.47-.58,.86"/>
      <path class="cls-5" d="M185.56,151.27h-.02c-.91,.52-1.64,1.29-2.11,2.22-.69,1.39-.72,2.99-.12,4.38,.07,.17,.25,.26,.43,.22,.18-.04,.31-.19,.31-.37,.01-.76,.19-1.52,.54-2.22,.47-.93,1.2-1.7,2.11-2.21h.02s0-.01,0-.02h.02c.9-.55,1.93-.8,2.97-.73,.79,.05,1.54,.27,2.2,.64,.16,.09,.35,.05,.47-.08,.12-.14,.13-.33,.02-.48-.9-1.21-2.3-1.99-3.85-2.09-1.04-.06-2.07,.18-2.97,.72h-.02s0,.02,0,.02"/>
      <path class="cls-2" d="M182.4,160.22c-1.64-2.11-2.02-5.06-.75-7.62,.67-1.34,1.7-2.38,2.92-3.07,1.2-.71,2.62-1.09,4.12-1,2.85,.17,5.21,1.98,6.22,4.46,.11,.27,.4,.41,.68,.34,.28-.08,.46-.35,.42-.63-.57-4.16-4.01-7.48-8.36-7.75-1.83-.11-3.57,.33-5.04,1.19-1.48,.85-2.73,2.13-3.55,3.77-1.95,3.9-.79,8.54,2.53,11.11,.23,.18,.55,.16,.76-.05,.21-.21,.23-.53,.05-.76"/>
      <path class="cls-5" d="M222.76,173.14l.02-.02c.75-.73,1.26-1.66,1.46-2.68,.31-1.52-.08-3.08-1.02-4.26-.11-.14-.31-.19-.47-.11-.16,.08-.25,.26-.2,.44,.18,.74,.21,1.52,.05,2.29-.21,1.02-.71,1.95-1.46,2.68l-.02,.02s0,0,0,0l-.02,.02c-.73,.75-1.66,1.26-2.68,1.46-.77,.16-1.55,.13-2.29-.05-.18-.04-.36,.04-.44,.2-.08,.16-.04,.36,.11,.47,1.18,.94,2.74,1.33,4.26,1.02,1.02-.21,1.95-.71,2.68-1.46l.02-.02s0,0,0,0"/>
      <path class="cls-5" d="M82.26,151.27h.02c.91,.52,1.64,1.29,2.11,2.22,.69,1.39,.72,2.99,.12,4.38-.07,.17-.25,.26-.43,.22-.18-.04-.31-.19-.31-.37-.01-.76-.19-1.52-.54-2.22-.47-.93-1.2-1.7-2.11-2.21h-.02s0-.01,0-.02h-.02c-.9-.55-1.93-.8-2.97-.73-.79,.05-1.54,.27-2.2,.64-.16,.09-.35,.05-.47-.08-.12-.14-.13-.33-.02-.48,.9-1.21,2.3-1.99,3.85-2.09,1.04-.06,2.07,.18,2.97,.72h.02s0,.02,0,.02"/>
      <path class="cls-2" d="M85.43,160.22c1.64-2.11,2.02-5.06,.75-7.62-.67-1.34-1.7-2.38-2.92-3.07-1.2-.71-2.62-1.09-4.12-1-2.85,.17-5.21,1.98-6.22,4.46-.11,.27-.4,.41-.68,.34-.28-.08-.46-.35-.42-.63,.57-4.16,4.01-7.48,8.36-7.75,1.83-.11,3.57,.33,5.04,1.19,1.48,.85,2.73,2.13,3.55,3.77,1.95,3.9,.79,8.54-2.53,11.11-.23,.18-.55,.16-.76-.05-.21-.21-.23-.53-.05-.76"/>
      <path class="cls-5" d="M45.06,173.14l-.02-.02c-.75-.73-1.26-1.66-1.46-2.68-.31-1.52,.08-3.08,1.02-4.26,.11-.14,.31-.19,.47-.11,.16,.08,.25,.26,.2,.44-.18,.74-.21,1.52-.05,2.29,.21,1.02,.71,1.95,1.46,2.68l.02,.02s0,0,0,0l.02,.02c.73,.75,1.66,1.26,2.68,1.46,.77,.16,1.55,.13,2.29-.05,.18-.04,.36,.04,.44,.2s.04,.36-.11,.47c-1.18,.94-2.74,1.33-4.26,1.02-1.02-.21-1.95-.71-2.68-1.46l-.02-.02s0,0,0,0"/>
      <path class="cls-2" d="M133.91,226.51c65.76,0,119.07,.96,119.07,2.15s-53.31,2.15-119.07,2.15-119.07-.96-119.07-2.15,53.31-2.15,119.07-2.15"/>
      <g>
        <path class="cls-1" d="M103.41,272.79c2.03,3.02,2.47,3.64,3.64,5.08h-8.93c-.48-1.1-1.48-2.92-2.37-4.36l-5.32-8.51-3.47,3.47v4.33c0,2.13,.07,3.26,.27,5.08h-7.28c.21-1.75,.27-3.02,.27-5.08v-18.4c0-2.09-.07-3.43-.27-5.08h7.28c-.21,1.79-.27,2.92-.27,5.08v6.08l6.83-7.31c1.34-1.41,2.23-2.58,2.99-3.85h9.27c-.62,.62-.86,.89-1.34,1.37l-2.4,2.4-7.17,7.52,8.27,12.19Z"/>
        <path class="cls-1" d="M128.96,277.87c-.27-1.65-.48-2.54-.82-3.71l-.93-2.92h-9.78l-.93,2.92c-.45,1.37-.69,2.44-.86,3.71h-8.03c.51-1.03,.82-1.85,1.65-4.19l7.42-20.67c.62-1.68,.93-2.71,1.1-3.71h8.96c.24,1,.48,1.89,1.17,3.71l7.45,20.67c.65,1.82,1.2,3.23,1.65,4.19h-8.03Zm-6.69-22.69l-3.19,10.3h6.46l-3.26-10.3Z"/>
        <path class="cls-1" d="M162.81,272.79c2.03,3.02,2.47,3.64,3.64,5.08h-8.93c-.48-1.1-1.48-2.92-2.37-4.36l-5.32-8.51-3.47,3.47v4.33c0,2.13,.07,3.26,.27,5.08h-7.28c.21-1.75,.27-3.02,.27-5.08v-18.4c0-2.09-.07-3.43-.27-5.08h7.28c-.21,1.79-.27,2.92-.27,5.08v6.08l6.83-7.31c1.34-1.41,2.23-2.58,2.99-3.85h9.27c-.62,.62-.86,.89-1.34,1.37l-2.4,2.4-7.17,7.52,8.27,12.19Z"/>
        <path class="cls-1" d="M176.44,249.3c-.21,1.41-.27,2.57-.27,5.08v18.4c0,2.37,.07,3.64,.27,5.08h-7.55c.21-1.34,.27-2.78,.27-5.08v-18.4c0-2.57-.07-3.57-.27-5.08h7.55Z"/>
        <path class="cls-1" d="M26.33,290.51c-.21,1.48-.27,2.71-.27,5.18v11.81c0,7.83-4.7,12.26-12.98,12.26-4.26,0-7.72-1.2-9.79-3.36-1.99-2.13-3.02-5.12-3.02-8.96v-11.74c0-2.37-.07-3.88-.28-5.18H7.42c-.21,1.27-.27,2.64-.27,5.18v11.81c0,4.33,1.96,6.39,5.97,6.39s6.08-2.06,6.08-6.39v-11.81c0-2.57-.07-3.64-.28-5.18h7.42Z"/>
        <path class="cls-1" d="M40.31,314.85c-.93,1.44-1.65,2.64-2.51,4.22h-9.1c1.85-2.27,2.54-3.16,3.54-4.53l7.55-10.61-6.42-9.03c-1.06-1.54-2.09-2.88-3.37-4.39h8.89c.55,1.27,1.3,2.64,2.54,4.53l2.61,3.98,2.58-4.02c1.37-2.16,1.96-3.19,2.51-4.5h8.82c-1.24,1.54-2.06,2.61-3.26,4.33l-6.46,9.06,7.59,10.64c1.1,1.54,2.06,2.78,3.5,4.53h-9.1c-.65-1.24-1.3-2.4-2.47-4.22l-3.74-5.8-3.71,5.8Z"/>
        <path class="cls-1" d="M78.66,290.51l-12.33,33.47h-6.14l12.36-33.47h6.11Z"/>
        <path class="cls-1" d="M107.64,290.51c-.21,1.48-.27,2.71-.27,5.18v11.81c0,7.83-4.7,12.26-12.98,12.26-4.26,0-7.72-1.2-9.79-3.36-1.99-2.13-3.02-5.12-3.02-8.96v-11.74c0-2.37-.07-3.88-.28-5.18h7.42c-.21,1.27-.27,2.64-.27,5.18v11.81c0,4.33,1.96,6.39,5.97,6.39s6.08-2.06,6.08-6.39v-11.81c0-2.57-.07-3.64-.28-5.18h7.42Z"/>
        <path class="cls-1" d="M119.38,290.51c-.21,1.41-.27,2.58-.27,5.08v18.4c0,2.37,.07,3.64,.27,5.08h-7.55c.21-1.34,.27-2.78,.27-5.08v-18.4c0-2.58-.07-3.57-.27-5.08h7.55Z"/>
        <path class="cls-1" d="M135.38,295.45c0-2.33-.07-3.47-.31-5.05,1.37,.07,2.23,.1,5.08,.1h7.17c4.22,0,7.62,1.17,9.92,3.4,2.51,2.47,3.78,6.08,3.78,10.64s-1.37,8.48-3.98,11.09c-2.3,2.27-5.56,3.43-9.65,3.43h-7.24c-2.64,0-3.61,.03-5.05,.1,.21-1.51,.27-2.64,.27-5.01v-18.71Zm11.4,17.61c2.23,0,3.81-.58,5.05-1.82,1.41-1.44,2.16-3.74,2.16-6.59s-.65-5.05-1.99-6.39c-1.2-1.2-2.85-1.75-5.32-1.75h-4.5v16.55h4.6Z"/>
        <path class="cls-1" d="M169.58,310.52c.34,2.78,1.96,4.26,4.67,4.26,1.37,0,2.58-.45,3.47-1.27,.51-.48,.75-.86,1.03-1.75l5.97,1.68c-.79,1.79-1.3,2.58-2.27,3.54-1.96,1.92-4.7,2.92-8.1,2.92s-6.01-.96-7.97-2.92c-2.03-2.06-3.12-4.98-3.12-8.38,0-6.8,4.36-11.29,10.92-11.29,5.36,0,9.1,2.92,10.3,8.03,.27,1.1,.41,2.54,.51,4.5,0,.14,0,.34,.03,.69h-15.45Zm8.93-4.74c-.48-2.2-1.96-3.36-4.33-3.36s-3.91,1.1-4.5,3.36h8.82Z"/>
        <path class="cls-1" d="M193.79,312.07c.34,1.79,1.51,2.58,3.81,2.58,2.06,0,3.23-.58,3.23-1.65,0-.51-.28-.96-.76-1.24-.48-.28-.93-.41-2.82-.79-2.61-.51-3.95-.86-5.08-1.24-1.65-.62-2.78-1.41-3.43-2.44-.55-.93-.86-2.09-.86-3.26,0-4.12,3.47-6.63,9.2-6.63,3.26,0,5.7,.72,7.31,2.2,1.13,1,1.68,1.99,2.23,3.91l-6.63,.72c-.17-1.41-1.03-2.03-2.88-2.03s-2.88,.58-2.88,1.48,.72,1.27,4.12,2.03c3.37,.72,4.43,1.03,5.63,1.65,2.23,1.1,3.3,2.78,3.3,5.25,0,1.82-.62,3.47-1.75,4.57-1.65,1.65-4.46,2.51-8.14,2.51-4.33,0-7.38-1.17-9.03-3.43-.69-.96-1.03-1.79-1.37-3.43l6.8-.75Z"/>
        <path class="cls-1" d="M217.41,298.13c-.21,1.41-.27,2.78-.27,5.18v10.57c0,1.85,.1,3.71,.27,5.18h-7.18c.21-1.68,.28-2.99,.28-5.18v-10.57c0-2.23-.07-3.64-.28-5.18h7.18Zm-.1-7.62v5.15h-6.97v-5.15h6.97Z"/>
        <path class="cls-1" d="M225.65,318.49c1.2,1.54,2.95,2.33,5.22,2.33,1.89,0,3.36-.52,4.19-1.51,.72-.82,1.03-1.85,1.1-3.67-1.75,1.58-3.6,2.27-6.25,2.27-5.97,0-9.75-3.91-9.75-10.16s3.88-10.13,9.75-10.13c2.54,0,4.39,.58,6.25,1.99v-1.48h6.73c-.21,1.54-.28,2.75-.28,4.77v12.05c0,4.12-1.17,6.9-3.57,8.58-1.85,1.3-4.74,2.03-8.17,2.03-4.67,0-7.76-1.17-10.16-3.81l4.94-3.26Zm5.53-5.53c2.82,0,4.84-2.16,4.84-5.22s-2.03-5.25-4.81-5.25-4.53,2.09-4.53,5.29,1.79,5.18,4.5,5.18Z"/>
        <path class="cls-1" d="M246.52,319.07c.21-1.61,.28-3.06,.28-5.18v-10.57c0-2.37-.07-3.81-.28-5.18h6.83v1.44c0,.21-.03,.72-.03,.96,2.16-2.06,4.26-2.92,7.07-2.92,2.37,0,4.26,.65,5.53,1.92,1.37,1.37,1.96,3.06,1.96,5.77v8.62c0,1.99,.1,3.71,.28,5.15h-7.14c.21-1.65,.27-3.09,.27-5.18v-7.04c0-1.37-.14-1.96-.55-2.54-.45-.62-1.24-.96-2.27-.96-1.92,0-3.64,1.2-5.12,3.61v6.93c0,1.96,.07,3.4,.28,5.18h-7.11Z"/>
      </g>
    </g>
  </g>
</svg>